<?xml version="1.0" encoding="UTF-8" standalone="no"?>
<!-- Creator: CorelDRAW 2020 (64-Bit) -->

<svg
   xmlns:dc="http://purl.org/dc/elements/1.1/"
   xmlns:cc="http://creativecommons.org/ns#"
   xmlns:rdf="http://www.w3.org/1999/02/22-rdf-syntax-ns#"
   xmlns:svg="http://www.w3.org/2000/svg"
   xmlns="http://www.w3.org/2000/svg"
   xmlns:sodipodi="http://sodipodi.sourceforge.net/DTD/sodipodi-0.dtd"
   xmlns:inkscape="http://www.inkscape.org/namespaces/inkscape"
   xml:space="preserve"
   width="926"
   height="168"
   version="1.1"
   style="clip-rule:evenodd;fill-rule:evenodd;image-rendering:optimizeQuality;shape-rendering:geometricPrecision;text-rendering:geometricPrecision"
   viewBox="0 0 24500.417 4445.0002"
   id="svg45"
   sodipodi:docname="ossm2021_9_926x168v6.svg"
   inkscape:version="0.92.1 r15371"><metadata
     id="metadata49"><rdf:RDF><cc:Work
         rdf:about=""><dc:format>image/svg+xml</dc:format><dc:type
           rdf:resource="http://purl.org/dc/dcmitype/StillImage" /><dc:title></dc:title></cc:Work></rdf:RDF></metadata><sodipodi:namedview
     pagecolor="#ffffff"
     bordercolor="#666666"
     borderopacity="1"
     objecttolerance="10"
     gridtolerance="10"
     guidetolerance="10"
     inkscape:pageopacity="0"
     inkscape:pageshadow="2"
     inkscape:window-width="1920"
     inkscape:window-height="986"
     id="namedview47"
     showgrid="false"
     inkscape:zoom="1.4142136"
     inkscape:cx="514.93355"
     inkscape:cy="77.817107"
     inkscape:window-x="-11"
     inkscape:window-y="-11"
     inkscape:window-maximized="1"
     inkscape:current-layer="svg45"
     inkscape:lockguides="false"
     showguides="true"
     inkscape:measure-start="0,0"
     inkscape:measure-end="0,0"
     units="px" /><defs
     id="defs7"><style
       type="text/css"
       id="style2"><![CDATA[
    .fil0 {fill:#2B2A29}
   ]]></style><clipPath
       id="id0"><rect
         x="-25463.57"
         y="4441.0498"
         width="9144"
         height="6087.52"
         id="rect4" /></clipPath></defs><path
     inkscape:connector-curvature="0"
     style="opacity:1;fill:#1c1f3b;fill-opacity:1;stroke:none;stroke-width:108.0774231;stroke-linecap:round;stroke-linejoin:round;stroke-miterlimit:4;stroke-dasharray:none;stroke-opacity:1"
     d="m -55442.578,-15592.712 h 1793.325 v 1763.67 h -1793.325 z"
     id="rect1138" /><path
     inkscape:connector-curvature="0"
     style="clip-rule:evenodd;opacity:1;fill:#7a4593;fill-opacity:1;fill-rule:evenodd;stroke:none;stroke-width:108.07743073;stroke-linecap:round;stroke-linejoin:round;stroke-miterlimit:4;stroke-dasharray:none;stroke-opacity:1;image-rendering:optimizeQuality;shape-rendering:geometricPrecision;text-rendering:geometricPrecision"
     d="m -55442.578,-10617.452 h 1793.325 v 1763.6698 h -1793.325 z"
     id="rect1138-0" /><path
     inkscape:connector-curvature="0"
     style="clip-rule:evenodd;opacity:1;fill:#88385b;fill-opacity:1;fill-rule:evenodd;stroke:none;stroke-width:108.07743073;stroke-linecap:round;stroke-linejoin:round;stroke-miterlimit:4;stroke-dasharray:none;stroke-opacity:1;image-rendering:optimizeQuality;shape-rendering:geometricPrecision;text-rendering:geometricPrecision"
     d="m -55442.578,-13091.852 h 1793.325 v 1763.67 h -1793.325 z"
     id="rect1138-9" /><path
     inkscape:connector-curvature="0"
     style="clip-rule:evenodd;opacity:1;fill:#f2033e;fill-opacity:1;fill-rule:evenodd;stroke:none;stroke-width:108.07743073;stroke-linecap:round;stroke-linejoin:round;stroke-miterlimit:4;stroke-dasharray:none;stroke-opacity:1;image-rendering:optimizeQuality;shape-rendering:geometricPrecision;text-rendering:geometricPrecision"
     d="m -55442.579,-8143.0522 h 1793.326 v 1763.67 h -1793.326 z"
     id="rect1138-1" /><path
     inkscape:connector-curvature="0"
     style="clip-rule:evenodd;opacity:1;fill:#fbff00;fill-opacity:1;fill-rule:evenodd;stroke:none;stroke-width:108.07744598;stroke-linecap:round;stroke-linejoin:round;stroke-miterlimit:4;stroke-dasharray:none;stroke-opacity:1;image-rendering:optimizeQuality;shape-rendering:geometricPrecision;text-rendering:geometricPrecision"
     d="m -55442.58,-5668.6522 h 1793.326 v 1763.67 h -1793.326 z"
     id="rect1138-1-9" /><path
     inkscape:connector-curvature="0"
     style="clip-rule:evenodd;opacity:1;fill:#c73a1c;fill-opacity:1;fill-rule:evenodd;stroke:none;stroke-width:108.07744598;stroke-linecap:round;stroke-linejoin:round;stroke-miterlimit:4;stroke-dasharray:none;stroke-opacity:1;image-rendering:optimizeQuality;shape-rendering:geometricPrecision;text-rendering:geometricPrecision"
     d="m -53649.255,-3904.9822 h -1793.325 v -1763.67 h 1793.325 z"
     id="rect1138-0-5" /><path
     inkscape:connector-curvature="0"
     style="clip-rule:evenodd;opacity:1;fill:#932504;fill-opacity:1;fill-rule:evenodd;stroke:none;stroke-width:108.07744598;stroke-linecap:round;stroke-linejoin:round;stroke-miterlimit:4;stroke-dasharray:none;stroke-opacity:1;image-rendering:optimizeQuality;shape-rendering:geometricPrecision;text-rendering:geometricPrecision"
     d="m -51174.854,-3904.9822 h -1793.326 v -1763.67 h 1793.326 z"
     id="rect1138-1-7" /><path
     inkscape:connector-curvature="0"
     style="clip-rule:evenodd;opacity:1;fill:#a89f2c;fill-opacity:1;fill-rule:evenodd;stroke:none;stroke-width:108.07744598;stroke-linecap:round;stroke-linejoin:round;stroke-miterlimit:4;stroke-dasharray:none;stroke-opacity:1;image-rendering:optimizeQuality;shape-rendering:geometricPrecision;text-rendering:geometricPrecision"
     d="m -52968.179,-8143.0522 h 1793.326 v 1763.67 h -1793.326 z"
     id="rect1138-0-55" /><path
     inkscape:connector-curvature="0"
     style="clip-rule:evenodd;opacity:1;fill:#b68318;fill-opacity:1;fill-rule:evenodd;stroke:none;stroke-width:108.07744598;stroke-linecap:round;stroke-linejoin:round;stroke-miterlimit:4;stroke-dasharray:none;stroke-opacity:1;image-rendering:optimizeQuality;shape-rendering:geometricPrecision;text-rendering:geometricPrecision"
     d="m -52968.178,-10617.452 h 1793.326 v 1763.6598 h -1793.326 z"
     id="rect1138-0-1" /><path
     inkscape:connector-curvature="0"
     style="clip-rule:evenodd;opacity:1;fill:#96a057;fill-opacity:1;fill-rule:evenodd;stroke:none;stroke-width:108.07744598;stroke-linecap:round;stroke-linejoin:round;stroke-miterlimit:4;stroke-dasharray:none;stroke-opacity:1;image-rendering:optimizeQuality;shape-rendering:geometricPrecision;text-rendering:geometricPrecision"
     d="m -52968.177,-13091.852 h 1793.325 v 1763.67 h -1793.325 z"
     id="rect1138-0-3" /><path
     inkscape:connector-curvature="0"
     style="clip-rule:evenodd;opacity:1;fill:#f99c36;fill-opacity:1;fill-rule:evenodd;stroke:none;stroke-width:108.07744598;stroke-linecap:round;stroke-linejoin:round;stroke-miterlimit:4;stroke-dasharray:none;stroke-opacity:1;image-rendering:optimizeQuality;shape-rendering:geometricPrecision;text-rendering:geometricPrecision"
     d="m -52968.176,-15566.252 h 1793.325 v 1763.67 h -1793.325 z"
     id="rect1138-0-552" /><path
     class="fil0"
     d="m 17338.418,93.379146 32.166,22.713654 c 125.117,475.88126 -387.448,46.52994 -384.291,475.76985 1.214,164.37034 75.69,205.31454 248.478,211.95846 208.79,8.02811 130.781,115.04564 174.706,268.82969 l 20.854,33.6886 c 97.755,79.4058 341.193,93.9575 411.345,-20.8874 73.128,-119.69354 -58.369,-337.95255 262.537,-276.16118 92.26,17.75735 97.743,97.28826 88.402,181.80195 -11.387,103.00343 -74.372,101.61503 -175.451,105.97743 -237.579,10.2469 -214.797,119.9611 -238.706,314.3546 l -43.359,35.3498 c -341.801,80.888 -249.75,-153.7485 -283.559,-240.0663 -53.694,-137.0534 -318.963,-140.4022 -407.971,-62.2153 -85.752,75.3471 -91.14,317.0784 56.332,368.7028 77.801,27.2412 192.606,2.9967 246.507,40.9713 53.626,37.783 51.024,146.5284 29.867,211.213 l -33.186,42.105 c -168.902,29.8981 -322.274,-5.8356 -351.283,164.0136 -32.708,191.3704 29.715,276.3574 232.159,284.4126 274.698,10.9305 94.537,171.8137 209.631,301.9418 82.265,93.0289 331.218,79.3974 398.488,-8.2241 97.414,-126.9139 -61.278,-303.7192 220.088,-293.4676 93.639,3.4021 134.159,28.5359 141.2,112.9287 30.501,365.1627 -385.628,-1.5046 -401.575,389.6533 -3.417,83.8573 -5.995,136.5133 -101.176,149.6717 -424.978,58.7326 -38.645,-340.002 -432.062,-358.6969 -465.866,-22.1423 -98.749,353.1818 -419.582,361.965 -102.874,2.8223 -162.633,-10.7114 -174.24,-100.6814 -47.576,-368.9042 375.513,-23.3296 399.151,-378.0085 5.584,-83.723 -12.666,-158.146 -61.179,-201.0144 -128.715,-113.7781 -328.947,53.5663 -340.823,-188.491 -8.85,-180.3596 -87.092,-240.7218 -299.724,-218.2318 -169.741,17.9404 -223.068,172.6215 -164.518,324.2092 64.609,167.282 295.105,48.6329 366.428,152.8151 30.019,43.8596 30.115,160.3739 -4.066,205.8102 -41.637,55.339 -152.378,34.2424 -224.886,47.5656 -231.968,42.5922 -103.104,250.2289 -187.165,326.2321 -44.873,40.5783 -180.436,38.0332 -233.869,15.2482 -73.707,-31.4521 -49.715,-121.2344 -62.117,-195.4115 -24.45,-146.167 -203.384,-189.9819 -359.486,-137.8307 -135.229,45.1637 -151.6,262.954 -71.543,357.5675 108.218,127.8914 338.177,-25.3571 356.272,173.5057 24.273,266.7401 -172.403,130.7404 -317.017,208.7176 -97.471,52.5707 -125.863,287.1227 -16.263,365.0011 150.144,106.6693 322.104,-65.3317 335.443,194.7242 9.184,178.8995 106.112,228.3135 308.572,204.4572 240.654,-28.3525 127.683,-225.1032 193.494,-317.6501 32.896,-46.2574 145.98,-50.2715 212.781,-36.4519 83.466,17.2435 95.237,82.2408 88.413,171.0681 -15.643,203.9972 -238.612,47.9849 -354.781,175.0194 -112.242,122.7614 57.291,308.9653 -217.994,304.331 -195.338,-3.2956 -110.15,-72.3778 -200.214,-311.4125 -42.274,-10.5148 -25.252,-6.5723 -38.938,-21.758 -99.689,-69.6185 -347.769,-35.4744 -383.383,90.7158 -19.983,70.8773 3.655,167.9245 -45.686,212.5573 -20.094,18.1811 -340.438,123.3413 -285.874,-172.8949 17.063,-92.6665 78.684,-86.6927 184.104,-90.9389 191.313,-7.715 259.328,-146.5283 201.113,-315.6495 -62.06,-180.2661 -312.429,-59.2553 -372.206,-167.6168 -63.619,-115.3182 54.58,-299.0306 -224.868,-310.8988 -482.133,-20.4765 -74.703,367.2602 -444.387,361.6344 -117.561,-1.8035 -149.565,-29.415 -153.257,-132.1282 -9.332,-259.1543 198.104,-97.0074 337.254,-202.4483 142.702,-108.1208 -35.106,-311.109 201.165,-320.2527 296.802,-11.5066 123.656,167.4999 228.839,295.7261 75.224,91.6892 336.938,95.7035 408.438,-8.7199 81.319,-118.7739 33.314,-321.0526 -115.533,-351.187 -75.763,-15.3284 -182.523,9.8676 -228.763,-44.9627 -34.481,-40.8906 -40.394,-175.5418 0.05,-219.2947 75.17,-81.308 322.05,33.4879 368.716,-171.287 46.229,-202.8053 -35.128,-290.8866 -240.415,-297.5841 -264.304,-8.6356 -77.774,-192.6923 -209.508,-312.2074 -90.34,-81.9557 -345.45,-71.1456 -402.123,40.0734 -69.16,135.6925 -21.475,317.4853 145.566,338.4214 81.897,10.2737 180.758,-9.5149 217.363,56.7102 33.063,59.7999 21.651,182.7355 -24.546,215.0661 -95.459,66.7968 -330.931,-41.1042 -358.3,182.1151 -8.726,71.2703 13.203,163.0178 -66.54,193.2236 -62.407,23.6463 -200.932,26.5889 -240.734,-31.51 -66.033,-96.3948 51.611,-294.2532 -207.979,-316.7928 -491.573,-42.6941 -116.445,352.9955 -441.363,360.8268 -94.943,2.2863 -157.499,-6.8981 -173.036,-90.8008 -53.059,-286.7386 175.201,-154.9938 312.666,-230.314 108.578,-59.4831 122.748,-298.1647 12.225,-369.3774 -171.534,-110.5224 -307.852,91.1262 -330.552,-216.7899 -12.254,-166.3886 -168.723,-216.3121 -345.013,-170.9566 -150.227,38.6629 -178.785,260.2884 -88.899,362.4523 113.184,128.6237 346.185,-29.0139 357.072,183.5789 12.762,248.8179 -156.868,120.5247 -338.065,209.0029 l -24.296,31.6971 c -69.16,59.0322 -10.53,204.3063 -73.422,262.2081 -48.566,44.7174 -251.718,49.6733 -280.84,-35.3626 -35.956,-104.9818 13.466,-196.3538 -84.099,-262.3332 -71.185,-48.133 -217.33,-44.3643 -301.928,-15.4937 -2.59,2.1746 -5.98,2.2994 -7.94,6.3491 l -32.76,12.4758 c -37.513,55.6026 -55.471,48.6954 -62.543,138.455 -35.67,452.7706 474.688,63.1802 396.06,461.7409 -36.935,187.2357 -380.705,-34.8409 -396.983,274.7591 -7.703,146.3944 33.173,231.5423 190.401,243.2943 258.336,19.3066 177.724,21.9141 218.049,225.1437 50.199,252.979 598.898,142.2955 459.046,-108.4823 l -47.271,-1.071 c -54.701,95.7116 32.386,193.3886 -209.726,178.0645 -186.064,-11.7653 -100.804,-130.8828 -145.003,-249.5987 -75.278,-202.1269 -357.03,-21.8025 -384.649,-204.9576 -45.36,-300.7499 208.222,-141.1659 337.638,-244.9015 73.762,-59.1301 80.558,-215.7628 37.873,-297.8211 -61.909,-119.0325 -184.24,-60.7825 -308.435,-101.1995 -94.821,-30.8665 -95.811,-221.2192 -21.445,-262.7794 8.795,-4.9073 255.634,-83.9424 273.028,88.6035 12.722,126.2034 8.917,220.371 146.273,246.9111 128.434,24.8119 259.092,5.7062 309.77,-77.5438 60.545,-99.4493 -25.831,-246.2279 120.636,-272.7189 134.761,-24.3697 234.698,15.8911 289.62,-105.4905 41.444,-91.5594 23.196,-243.2496 -50.981,-294.6014 -106.783,-73.9273 -267.594,3.081 -316.909,-92.3816 -17.116,-33.1346 -74.341,-227.8358 120.471,-238.0923 390.563,-20.5344 -26.051,345.1106 432.337,362.8186 153.767,5.9384 195.158,86.2415 149.179,224.1208 -36.895,110.6612 -208.11,39.1181 -312.031,100.2352 -94.41,55.5313 -202.903,440.483 221.205,398.699 271.041,-26.7 106.276,-296.1685 243.492,-347.7044 50.183,-18.8506 140.857,-18.2434 190.431,-1.8391 114.27,37.8099 37.806,184.5614 101.614,277.1033 53.67,77.8345 216.631,95.0291 327.649,61.6796 142.661,-42.8552 99.77,-146.9655 126.671,-266.1816 29.205,-129.3966 183.676,-53.1069 299.311,-105.6648 95.236,-43.3014 114.712,-166.969 90.676,-271.6157 -53.835,-234.3865 -341.429,-54.1966 -388.773,-215.4635 -82.393,-280.6709 268.258,-249.4069 305.871,-153.9805 44.35,112.4954 -29.672,208.9757 105.904,275.7723 111.787,55.0806 270.174,-21.3204 301.681,104.0753 92.255,367.2251 -353.313,75.8918 -392.317,371.4978 -57.718,437.3623 368.28,148.645 397.209,381.0535 18.73,150.3953 -33.947,199.7739 -203.345,185.4326 -259.246,-21.9464 57.939,-418.4661 -431.758,-357.7331 -144.314,17.9047 -161.46,100.6684 -168.78,231.4932 -15.515,277.1794 -437.489,-48.9052 -400.472,387.9029 10.038,118.4697 83.233,169.166 218.038,173.2648 143.694,4.3848 236.38,-28.2905 256.696,-151.5964 23.664,-143.6575 -25.65,-219.7278 187.601,-211.092 195.036,7.9113 114.464,115.0678 152.822,242.2045 62.804,208.1677 352.083,32.3804 386.508,208.3064 9.056,46.2974 7.527,125.4579 -15.846,160.334 -52.224,77.9548 -216.235,12.6985 -314.224,85.5812 -92.356,68.7029 -167.55,452.2521 253.071,387.0455 148.062,-22.9592 151.825,-114.0365 160.894,-238.9368 12.856,-177.1669 245.737,-114.1345 270.242,-102.0973 95.097,46.7087 15.879,197.6706 99.77,288.6141 55.972,60.6711 230.344,79.567 330.43,37.1986 144.37,-61.1082 74.039,-168.1392 113.607,-275.0767 40.302,-108.9324 202.202,-37.4654 310.972,-98.3105 102.995,-57.603 196.477,-445.9743 -220.339,-399.4041 -138.802,15.5023 -172.086,87.0496 -179.154,216.9053 -3.683,67.6904 -6.274,111.0811 -66.929,131.8794 -44.351,15.2212 -147.224,13.73 -187.632,1.0314 -114.241,-35.9124 -36.287,-202.243 -104.814,-275.0671 l -24.616,-32.841 c -113.635,-71.5694 -221.22,-22.5392 -295.739,-65.2068 -69.23,-39.636 -67.465,-227.528 17.559,-259.7209 109.515,-41.4619 210.759,15.9404 293.121,-73.2354 54.867,-59.4156 61.621,-203.9705 20.672,-282.1484 -83.448,-159.3163 -337.442,-17.57 -372.41,-170.9699 -67.341,-295.4363 265.28,-221.7504 300.232,-164.2722 52.969,87.1121 -18.768,198.7641 83.068,273.1786 64.748,47.3153 220.832,58.2365 311.451,21.4448 115.894,-47.0431 91.113,-146.2912 108.716,-250.0671 35.585,-209.8247 414.254,60.6837 397.685,-331.9649 -14.525,-344.4988 -391.953,-53.7994 -401.157,-325.8974 -4.866,-144.019 53.431,-177.667 216.546,-158.7088 150.24,17.4715 84.553,130.6155 119.451,240.3784 74.038,232.9128 477.389,-17.7928 383.311,337.4301 -44.93,169.6663 -423.956,-60.1659 -394.156,327.0671 20.132,261.7748 394.156,206.6272 456.672,88.4026 47.452,-89.7334 -15.654,-227.3407 96.131,-260.5557 45.371,-13.4666 121.492,-14.1277 173.809,-0.7681 157.725,40.2834 -6.269,273.8614 193.82,339.7784 91.832,30.2508 251.914,22.0531 314.319,-39.4617 84.377,-83.1605 20.414,-213.6774 80.283,-274.6205 58.52,-59.5543 209.476,-8.4123 303.321,-74.0792 72.769,-50.9191 184.019,-402.1905 -186.819,-393.1937 -126.425,3.0725 -203.814,44.0743 -220.556,152.9404 -20.385,132.4009 26.212,205.1137 -152.225,209.798 -348.529,9.144 -12.502,-328.4064 -361.32,-360.1889 -140.884,-12.8368 -215.636,13.9 -217.842,-145.068 -2.355,-170.2333 73.639,-137.8805 225.409,-153.101 238.394,-23.9015 227.38,-358.7862 61.885,-415.095 -111.598,-37.9748 -252.316,21.0705 -280.608,-94.7297 -33.976,-139.0403 4.63,-212.3738 152.308,-213.3381 332.855,-2.2148 1.214,337.314 361.234,361.206 450.515,29.898 167.732,-319.8198 374.892,-355.79 123.696,-21.4856 223.422,5.9877 282.465,-83.9693 75.016,-114.29958 60.81,-432.14608 -313.778,-345.56956 -268.069,61.96541 27.272,407.57106 -362.462,349.81586 -136.815,-20.2667 -81.908,-148.4169 -112.146,-242.93696 -68.224,-213.25375 -493.019,3.50523 -379.345,-340.52429 52.334,-158.36516 423.006,62.84949 390.784,-327.50903 -20.096,-243.43691 -407.912,-214.62431 -463.691,-63.6175 -34.951,94.65386 21.336,217.54022 -99.494,245.16065 -385.216,88.04569 -119.631,-280.608449 -372.838,-345.547575 -115.511,-29.61629 -256.655,-8.729002 -309.095,58.076576 -62.544,79.709399 -13.743,218.388149 -76.33,268.048179 -65.244,51.77629 -217.342,0.29932 -304.916,72.15444 -66.183,54.29938 -78.434,187.78118 -45.498,275.36667 29.717,79.0219 177.201,152.355 249.627,97.87303 84.045,-108.18731 -173.588,22.19111 -185.621,-176.42604 -10.954,-181.11003 51.463,-159.3029 217.845,-174.68484 336.173,-31.1123 16.606,-436.0354321 419.627,-354.946308 134.448,27.048868 61.192,162.776358 112.493,264.900288 45.978,91.51041 189.354,111.62552 321.208,82.44228 276.264,-61.14424 -45.344,-444.398615 409.778,-337.193724 z"
     id="path13-6"
     inkscape:connector-curvature="0"
     style="clip-rule:evenodd;fill:#ffffff;fill-opacity:1;fill-rule:evenodd;stroke:#1c1f3b;stroke-width:20.40237999;stroke-miterlimit:4;stroke-dasharray:none;stroke-opacity:1;image-rendering:optimizeQuality;shape-rendering:geometricPrecision;text-rendering:geometricPrecision" /><g
     id="g4263"
     transform="matrix(1.2144806,0,0,1.272417,-10433.651,-756.86301)"><path
       style="clip-rule:evenodd;fill:#ffffff;fill-opacity:1;fill-rule:evenodd;stroke:#1c1f3b;stroke-width:66.14583588;stroke-miterlimit:4;stroke-dasharray:none;stroke-opacity:1;image-rendering:optimizeQuality;shape-rendering:geometricPrecision;text-rendering:geometricPrecision"
       inkscape:connector-curvature="0"
       id="path15-5"
       d="m 17251.773,1171.2209 -49.355,-11.9448 -764.06,1666.6222 -777.172,-1699.0623 -482.891,2383.7786 359.831,-1.6899 233.472,-1306.5166 c 162.359,156.6615 494.087,1220.2743 658.215,1390.39 l 650.902,-1390.7944 c 59.442,87.3109 198.441,1092.1893 226.676,1299.952 l 351.049,9.8721 z"
       class="fil0" /><path
       style="clip-rule:evenodd;fill:#ffffff;fill-opacity:1;fill-rule:evenodd;stroke:#1c1f3b;stroke-width:66.14583588;stroke-miterlimit:4;stroke-dasharray:none;stroke-opacity:1;image-rendering:optimizeQuality;shape-rendering:geometricPrecision;text-rendering:geometricPrecision"
       inkscape:connector-curvature="0"
       id="path17-6"
       d="m 9329.0417,2461.6041 c -64.0375,-1134.0539 1597.1273,-1188.0582 1663.5733,-126.5469 71.217,1138.0909 -1603.5221,1190.3836 -1663.5733,126.5469 z m 635.6987,-1198.8619 c -604.1314,103.6899 -1069.6533,624.4218 -970.2237,1326.9397 83.389,589.1797 684.2096,1061.3885 1374.7623,943.2768 586.042,-100.2091 1070.093,-638.1071 956.473,-1329.359 -94.195,-573.1474 -669.791,-1059.5181 -1361.0116,-940.8575 z"
       class="fil0" /><path
       style="clip-rule:evenodd;fill:#ffffff;fill-opacity:1;fill-rule:evenodd;stroke:#1c1f3b;stroke-width:66.14583588;stroke-miterlimit:4;stroke-dasharray:none;stroke-opacity:1;image-rendering:optimizeQuality;shape-rendering:geometricPrecision;text-rendering:geometricPrecision"
       inkscape:connector-curvature="0"
       id="path19-1"
       d="m 13750.53,2829.8414 c -106.896,-0.5344 -268.432,26.4605 -345.038,80.667 130.3,1027.6557 1651.123,721.8794 1427.45,-227.3842 -103.812,-440.621 -503.395,-439.6604 -831.533,-633.1313 -215.48,-127.0523 -183.861,-365.4135 7.987,-452.2407 287.299,-129.9988 389.724,57.0374 508.174,173.5026 l 267.177,-144.3629 c -100.178,-300.0927 -598.75,-518.6158 -978.395,-291.21 -349.097,209.0771 -431.253,632.4813 -96.111,915.278 262.016,221.0724 832.994,232.6056 791.259,659.0646 -38.115,389.621 -682.058,516.0883 -750.97,-80.1831 z"
       class="fil0" /><path
       style="clip-rule:evenodd;fill:#ffffff;fill-opacity:1;fill-rule:evenodd;stroke:#1c1f3b;stroke-width:66.14583588;stroke-miterlimit:4;stroke-dasharray:none;stroke-opacity:1;image-rendering:optimizeQuality;shape-rendering:geometricPrecision;text-rendering:geometricPrecision"
       inkscape:connector-curvature="0"
       id="path21-2"
       d="m 11795.73,2051.1773 c 30.393,25.7528 23.022,-1.2638 39.577,68.2961 399.715,433.8542 843.903,308.1234 915.128,669.5434 48.481,246.0091 -123.707,434.4608 -341.221,442.9174 -344.406,13.382 -323.102,-181.8076 -412.312,-401.284 l -331.368,59.2762 c -12.987,407.9569 376.076,707.667 828.912,653.2366 389.834,-46.8331 691.529,-416.3847 594.999,-854.283 -101.118,-458.6465 -523.723,-439.841 -842.259,-643.4368 -339.987,-217.3532 -14.117,-575.5161 319.505,-462.0551 129.844,44.161 120.293,118.509 212.484,185.0936 l 267.845,-151.5413 c -176.321,-271.3069 -455.376,-471.3495 -860.377,-338.1154 -341.404,112.3272 -485.049,396.0339 -390.913,772.3523 z"
       class="fil0" /><path
       style="clip-rule:evenodd;fill:#ffffff;fill-opacity:1;fill-rule:evenodd;stroke:#1c1f3b;stroke-width:66.14583588;stroke-miterlimit:4;stroke-dasharray:none;stroke-opacity:1;image-rendering:optimizeQuality;shape-rendering:geometricPrecision;text-rendering:geometricPrecision"
       inkscape:connector-curvature="0"
       id="path29-8"
       d="m 11835.307,2119.4734 c -16.555,-69.5599 -9.184,-42.5433 -39.577,-68.2961 z"
       class="fil0" /><path
       style="clip-rule:evenodd;fill:#ffffff;fill-opacity:1;fill-rule:evenodd;stroke:#1c1f3b;stroke-width:66.14583588;stroke-miterlimit:4;stroke-dasharray:none;stroke-opacity:1;image-rendering:optimizeQuality;shape-rendering:geometricPrecision;text-rendering:geometricPrecision"
       inkscape:connector-curvature="0"
       id="path19-1-7"
       d="m 11996.902,2830.6502 c -106.896,-0.5344 -268.432,26.4605 -345.038,80.667 130.3,1027.6556 1651.123,721.8793 1427.45,-227.3842 -103.812,-440.6209 -503.395,-439.6603 -831.533,-633.1312 -215.48,-127.0523 -183.861,-365.4134 7.987,-452.2406 287.299,-129.9988 389.724,57.0374 508.174,173.5025 l 267.177,-144.3628 c -100.178,-300.0927 -598.75,-518.6158 -978.395,-291.21 -349.097,209.0771 -431.253,632.4812 -96.111,915.2779 262.016,221.0723 832.994,232.6056 791.259,659.0645 -38.115,389.621 -682.058,516.0882 -750.97,-80.1831 z"
       class="fil0" /></g></svg>